DataType=double
version=3
OpenSimVersion=4.3
endheader
time	trunk_rz	trunk_rx	trunk_ry	trunk_tx	trunk_ty	trunk_tz	neck_flexion	neck_lateral_bending	neck_rotation	arm_flex_r	arm_add_r	arm_rot_r	elbow_flex_r	pro_sup_r	wrist_flex_r	wrist_dev_r	hand_finger_flex_r
0	0	0	0	0	0	0	0	0	0	0	-1.5707963267949	0	0	1.5707963267949	0	0	-0
0.01195	-0.172337498644981	0.007700732658908513	-1.587591537920487	-0.8766753396792804	0.8663848823934708	-0.8788583691242626	0	0	0	-0.4368121285598738	0.08640888035282837	-0.8083113161134089	1.74529661639591	-1.45457190596175	-0.164836631556117	-0.43633231	0
0.02091	-0.1577574284478178	0.01436488183938634	-1.580784938085206	-0.8717513918478973	0.8674318948520423	-0.8814948810939357	0	0	0	-0.4281731569201884	0.06926422912178846	-0.8409579027594517	1.761820530866702	-1.459684991203101	-0.1559814072351432	-0.43633231	0
0.02987	-0.1410620024939898	0.01693806167871934	-1.570665939029007	-0.8658129049207431	0.8686167200436059	-0.8827094649374492	0	0	0	-0.4275242607704878	0.04725788932500229	-0.8787094238707586	1.776348521404124	-1.520805623744249	-0.1242898261778578	-0.43633231	0
0.04082	-0.1243740947737568	0.02342083402908082	-1.562628013876951	-0.8600569643804722	0.8700796355495519	-0.8854141511769585	0	0	0	-0.4207956085458667	0.02534151247608651	-0.9127766485137875	1.793347690394556	-1.52352985422877	-0.1130903684251478	-0.43633231	0
0.05078	-0.1074878088599076	0.02705865769373277	-1.55208762796731	-0.8540196064158373	0.8716982765370817	-0.8871873505350979	0	0	0	-0.4198370620061183	0.0011726234768456	-0.9493413329050545	1.80750223297544	-1.535977297352962	-0.09965299194004297	-0.43633231	0
0.06074	-0.09286339760046923	0.02890461795210622	-1.538889776979449	-0.8489367460007085	0.873324077107225	-0.8885090918806381	0	0	0	-0.4215993198634376	-0.01812189834318187	-0.9904930039971972	1.820628294106045	-1.576508214671555	-0.07076085642496996	-0.43633231	0
0.0707	-0.07561263756615093	0.03400752447179655	-1.528478377576753	-0.8427660281669963	0.8752474271654064	-0.8908455163371426	0	0	0	-0.4215419966373289	-0.04453964265467374	-1.026547841769595	1.833876751074778	-1.58048803270431	-0.06090505959894457	-0.43633231	0
0.08065	-0.05788394476417221	0.03630253150250323	-1.514409848754228	-0.8363048451864157	0.8772567862211418	-0.8924016930396911	0	0	0	-0.4282779675130997	-0.07111033056588494	-1.066580708079671	1.846444952903778	-1.593842822994092	-0.04600641085698173	-0.43633231	0
0.09113	-0.04081174800753094	0.03923725932301984	-1.500420206578409	-0.8301164557473885	0.879358076080986	-0.8942016387216885	0	0	0	-0.4360039965637658	-0.09723276611658323	-1.106537361452468	1.85789496497698	-1.608532459394	-0.02949909617310041	-0.43633231	0
0.10009	-0.02363213346826302	0.04139662636803042	-1.485911952167184	-0.8239091245615996	0.8815557255681684	-0.8957208464904803	0	0	0	-0.4474931420996691	-0.1237834787036115	-1.14699669396924	1.868643503214183	-1.624773470026821	-0.01101911243961279	-0.43633231	0
0.11104	-0.009638304457083108	0.04023238172796325	-1.467394317797061	-0.8188926846631124	0.883532397667964	-0.8964018006491906	0	0	0	-0.4647376972360444	-0.1446006275194543	-1.190556448212045	1.877085104622376	-1.663310747136191	0.02433199516852614	-0.43633231	0
0.12	0.009451253939472926	0.04640868635577769	-1.456158106481068	-0.8119011541447674	0.8860908079791247	-0.8992323473542692	0	0	0	-0.4767528866231883	-0.1764851201886202	-1.227946104503025	1.885697668707011	-1.668462167981924	0.03764688036694096	-0.43633231	0
0.12996	0.02741029554104615	0.04840968694855664	-1.439576304700203	-0.8053213746066054	0.8885682858723714	-0.9009217650427735	0	0	0	-0.4982875211996525	-0.2038158500918497	-1.27044517115886	1.893096015987138	-1.680229873158908	0.05614733835864071	-0.43633231	0
0.13992	0.04574098031026662	0.05175089899019013	-1.424068904312398	-0.7986291255039458	0.8911748831364883	-0.903067943191744	0	0	0	-0.5206805539350537	-0.2316045226850464	-1.313047250183801	1.899095821778937	-1.695204949090084	0.07604890794571553	-0.43633231	0
0.14988	0.06109312106790256	0.05328262431183316	-1.407296667678313	-0.7931284994622665	0.8935134049670168	-0.9046752766370622	0	0	0	-0.5451924527273075	-0.2535619202772005	-1.356741799163347	1.903104609529514	-1.743068049916167	0.1237808650423434	-0.43633231	0
0.15983	0.07943154133830792	0.0587379121841335	-1.395060924586021	-0.7865130664698794	0.8963696115602506	-0.9073920214789309	0	0	0	-0.568254888425352	-0.2811645323472533	-1.397629727250421	1.907176621264175	-1.743658778225257	0.1357128210347974	-0.43633231	0
0.16979	0.09648123805073849	0.06137795338912771	-1.380124873103896	-0.7804262730266655	0.8991016151944006	-0.9093553800437167	0	0	0	-0.5962746648095489	-0.303982206019102	-1.441609068715013	1.90935572360184	-1.754008333779903	0.153544695944144	-0.43633231	0
0.18074	0.1142641138535529	0.0658245498961005	-1.366993530692977	-0.7740910695849463	0.9019898725674815	-0.9117869951724408	0	0	0	-0.6255703685289893	-0.3275772315838387	-1.48499586419361	1.911146606585172	-1.767043209658409	0.1758171253636016	-0.43633231	0
0.19023	0.1307093187274478	0.0697107825391063	-1.353714160340548	-0.7683007412406334	0.9048017017832649	-0.9140719207922668	0	0	0	-0.6565608464892252	-0.3476284839832209	-1.528583523939677	1.911552985429642	-1.784602987797116	0.200405841998674	-0.43633231	0
0.20018	0.1442072265604948	0.07585540328039729	-1.34341973426411	-0.7639559684792415	0.9074458902886255	-0.9169501827410756	0	0	0	-0.6783232960203868	-0.3621993891374139	-1.570785409330777	1.914540934967705	-1.79945140306361	0.2225322043500931	-0.43633231	0
0.21114	0.1435206664490109	0.07601735303968514	-1.348442193371068	-0.7642808483847052	0.9083256323745001	-0.9169114647239941	0	0	0	-0.6891914154932485	-0.3785401927651134	-1.57079633	1.912072200908304	-1.808321477706587	0.2965813773172443	-0.43633231	0
0.2211	0.1345945769765375	0.07121676672493346	-1.355358915230414	-0.7679109831831628	0.9082984538616125	-0.9148897752957238	0	0	0	-0.6887825314418475	-0.3833185853373901	-1.57079633	1.906701291054776	-1.806651983615134	0.3007303880318232	-0.43633231	0
0.23105	0.1313661592008483	0.0699237936426908	-1.357277896470988	-0.7693680348263492	0.9088440321218538	-0.9145460556251763	0	0	0	-0.6988259497542234	-0.390957820070253	-1.57079633	1.907314672529452	-1.793783350480093	0.3689693747856878	-0.43633231	0
0.24002	0.1255547973254696	0.0683137450263437	-1.36230012079164	-0.7717839730937535	0.9091389584919719	-0.9138431199123029	0	0	0	-0.7014047745412034	-0.3972667059980219	-1.57079633	1.905635541000876	-1.79334738472379	0.4128309549978734	-0.43633231	0
0.25097	0.1172101404804003	0.06358078920580851	-1.369555547161473	-0.7751747742922775	0.9091809881679515	-0.9118544631289021	0	0	0	-0.7000947037544873	-0.4004629704352289	-1.57079633	1.901558201151312	-1.791055561876068	0.4167891589023044	-0.43633231	0
0.26093	0.1115228099539023	0.0610229943564011	-1.37045729557048	-0.7775046327723347	0.9094441217369665	-0.9111231274716427	0	0	0	-0.7062192414071856	-0.4021436172281164	-1.57079633	1.901091647977117	-1.768998949958737	0.4685823820454476	-0.43633231	0
0.27088	0.1035456959504141	0.05686464897322323	-1.377334205936221	-0.7806790488866527	0.9095116447783202	-0.9093288175431821	0	0	0	-0.7047200076531152	-0.4046037291939955	-1.57079633	1.896936949093294	-1.766749056195099	0.4736883919021553	-0.43633231	0
0.28084	0.09809567319064737	0.05377066378927434	-1.377348975592271	-0.7828290456770257	0.9097189697158148	-0.9084554157394286	0	0	0	-0.7121202078189545	-0.4051846595427588	-1.57079633	1.895899969784201	-1.746981853506844	0.5293852238137476	-0.43633231	0
0.29231	0.09088822796455755	0.04911072494081002	-1.384479302318155	-0.7857056505433686	0.909879519465475	-0.9064778595740609	0	0	0	-0.7102824995244497	-0.4068389887478921	-1.57079633	1.891961408527416	-1.745077133343039	0.533871564271189	-0.43633231	0
0.30127	0.08441163815025529	0.04484145209015368	-1.382820166841338	-0.7881779110983862	0.9098875596185418	-0.9053225878464091	0	0	0	-0.7180094706347835	-0.4044441258627218	-1.57079633	1.890310879331393	-1.727888085436659	0.5885939106354482	-0.43633231	0
